Coordinates
version=1
nRows=22
nColumns=18
inDegrees=yes

Units are S.I. units (second, meters, Newtons, ...)
Angles are in degrees.

endheader
time	ground_thorax_rot_x	ground_thorax_rot_y	ground_thorax_rot_z	ground_thorax_tx	ground_thorax_ty	ground_thorax_tz	clav_prot	clav_elev	scapula_abduction	scapula_elevation	scapula_upward_rot	scapula_winging	plane_elv	shoulder_elv	axial_rot	elbow_flexion	pro_sup
      1.08000000	      1.53766224	     -4.95388975	     -9.85068559	     -0.00423131	      0.00403036	     -0.00078352	    -21.65107586	     -0.23859779	    -12.78729601	     -0.51865626	     11.72991855	      4.69840125	    -17.89796054	     16.69364377	     32.19769496	      0.00000000	     34.32000000
      1.09000000	      1.44321034	     -5.00269479	     -9.90906471	     -0.00423131	      0.00403036	     -0.00078352	    -21.58479766	      0.66133365	    -12.55508624	     -0.02433905	     12.44839397	      4.34557965	    -16.64137283	     16.25409011	     30.69609761	      0.00000000	     34.32000000
      1.10000000	      1.34135068	     -5.09369035	     -9.95385637	     -0.00423131	      0.00403036	     -0.00078352	    -21.32181836	      1.37511996	    -11.83849065	      0.30243218	     13.29840008	      3.98456863	    -16.95831274	     15.81367679	     30.32385749	      0.00000000	     34.32000000
      1.11000000	      1.26786810	     -5.12074649	     -9.86214172	     -0.00423131	      0.00403036	     -0.00078352	    -21.05633356	      1.89081274	    -11.05695385	      0.48537608	     14.12436787	      3.66031976	    -18.66519472	     15.44959358	     30.94242751	      0.00000000	     34.32000000
      1.12000000	      1.30841199	     -4.94616702	     -9.88909860	     -0.00423131	      0.00403036	     -0.00078352	    -21.04711011	      2.30758718	    -10.70848654	      0.58857118	     14.91743564	      3.37496735	    -20.07623346	     15.04532899	     31.46253765	      0.00000000	     34.32000000
      1.13000000	      1.29123655	     -4.74936481	     -9.92204195	     -0.00423131	      0.00403036	     -0.00078352	    -21.30432708	      2.77634321	    -10.90537040	      0.74231985	     15.61758615	      3.12855583	    -20.35283451	     14.39711663	     31.54230522	      0.00000000	     34.32000000
      1.14000000	      1.23242201	     -4.70943075	     -9.95485069	     -0.00423131	      0.00403036	     -0.00078352	    -21.74164834	      3.58210131	    -11.40389981	      1.08008397	     16.54990203	      2.78797735	    -19.63347450	     13.27798000	     31.65573245	      0.00000000	     34.32000000
      1.15000000	      1.13889590	     -4.75332311	    -10.04189230	     -0.00423131	      0.00403036	     -0.00078352	    -22.20219351	      4.68104869	    -11.84806547	      1.55039542	     17.81838189	      2.32603154	    -18.70120789	     11.81786614	     32.01290300	      0.00000000	     34.32000000
      1.16000000	      1.13522041	     -4.56454764	     -9.97446547	     -0.00423131	      0.00403036	     -0.00078352	    -22.64521433	      6.07217778	    -12.42331394	      2.25426008	     19.04355508	      1.87954232	    -17.45650186	     10.32456316	     33.04686237	      0.00000000	     34.32000000
      1.17000000	      0.83977789	     -4.26423197	     -9.91131534	     -0.00423131	      0.00403036	     -0.00078352	    -22.80054769	      6.92375473	    -12.50407808	      2.66416110	     19.90392870	      1.58640271	    -18.09558206	      9.03223555	     34.98226646	      0.00000000	     34.32000000
      1.18000000	      0.89107120	     -4.11425161	     -9.88832484	     -0.00423131	      0.00403036	     -0.00078352	    -22.96987907	      7.66383735	    -12.42449038	      2.94061741	     20.96113661	      1.23847830	    -20.82808239	      7.44608082	     45.31770941	      0.00000000	     34.32000000
      1.19000000	      0.58591311	     -4.27663064	     -9.93492292	     -0.00423131	      0.00403036	     -0.00078352	    -22.94480333	      7.74217581	    -12.20319382	      2.92423663	     21.26672960	      1.14112875	    -20.89536863	      7.10803439	     45.28973076	      0.00000000	     34.32000000
      1.20000000	      0.87499056	     -5.05651829	     -9.89212422	     -0.00423131	      0.00403036	     -0.00078352	    -22.65315025	      8.68258429	    -11.11052665	      3.28884709	     22.70596378	      0.69716909	    -24.96461219	      6.06531945	     49.15202452	      0.00000000	     34.32000000
      1.21000000	      0.67981064	     -5.26382839	     -9.94175728	     -0.00423131	      0.00403036	     -0.00078352	    -22.71052420	      9.10015400	    -11.18519537	      3.51709513	     23.03232820	      0.60300642	    -23.41433380	      5.52747832	     48.86148192	      0.00000000	     34.32000000
      1.22000000	      0.31130244	     -5.21741279	     -9.93005599	     -0.00423131	      0.00403036	     -0.00078352	    -22.76030565	      9.35476482	    -11.29550127	      3.66786148	     23.17978971	      0.56297327	    -23.34333875	      4.96955279	     48.83552751	      0.00000000	     34.32000000
      1.23000000	      0.29388166	     -5.02227310	     -9.94608039	     -0.00423131	      0.00403036	     -0.00078352	    -23.00597361	      9.79017742	    -11.62021466	      3.86303516	     23.64824902	      0.42057332	    -23.20441722	      4.41647582	     48.83928462	      0.00000000	     34.32000000
      1.24000000	      0.73764862	     -5.08232560	    -10.11446375	     -0.00423131	      0.00403036	     -0.00078352	    -23.20006371	     10.40637035	    -12.03653056	      4.22488079	     23.99849215	      0.33241503	    -16.06774560	      5.12426901	     39.65612663	      0.00000000	     34.32000000
      1.25000000	      0.62101621	     -5.09610835	    -10.01172473	     -0.00423131	      0.00403036	     -0.00078352	    -23.34923005	     10.86927171	    -11.98100116	      4.37475150	     24.76740834	      0.09988059	    -22.25403996	      3.76994241	     48.21776231	      0.00000000	     34.32000000
      1.26000000	      0.27201704	     -5.18979908	    -10.02970088	     -0.00423131	      0.00403036	     -0.00078352	    -23.35625083	     11.07409708	    -12.02114475	      4.49992429	     24.87923661	      0.07861464	    -22.21827817	      3.37100902	     48.18394445	      0.00000000	     34.32000000
      1.27000000	      0.59327639	     -5.38492842	    -10.04848286	     -0.00423131	      0.00403036	     -0.00078352	    -23.36980294	     11.85299820	    -12.08425757	      4.95430817	     25.39945213	     -0.02636257	    -17.34949968	      3.56332336	     41.69821127	      0.00000000	     34.32000000
      1.28000000	      0.58234386	     -5.26027841	    -10.05862326	     -0.00423131	      0.00403036	     -0.00078352	    -23.48924176	     12.26556601	    -12.23186850	      5.15852922	     25.79775400	     -0.12632542	    -17.76139714	      2.87130428	     42.94047248	      0.00000000	     34.32000000
      1.29000000	      0.45168896	     -5.09583462	    -10.10351602	     -0.00423131	      0.00403036	     -0.00078352	    -23.66296800	     12.68524162	    -12.54327375	      5.38237700	     26.12089124	     -0.20226871	    -18.75037172	      1.90082928	     45.63662283	      0.00000000	     34.32000000
